<?xml version="1.0" standalone="no"?>
<!DOCTYPE svg PUBLIC "-//W3C//DTD SVG 20010904//EN"
 "http://www.w3.org/TR/2001/REC-SVG-20010904/DTD/svg10.dtd">
<svg version="1.0" xmlns="http://www.w3.org/2000/svg"
 width="96.000000pt" height="96.000000pt" viewBox="0 0 96.000000 96.000000"
 preserveAspectRatio="xMidYMid meet">
<metadata>
Created by potrace 1.16, written by Peter Selinger 2001-2019
</metadata>
<g transform="translate(0.000000,96.000000) scale(0.100000,-0.100000)"
fill="#000000" stroke="none">
<path d="M343 861 c-104 -39 -180 -107 -231 -211 -25 -50 -27 -65 -27 -170 0
-107 2 -119 29 -175 38 -77 114 -153 191 -191 56 -27 68 -29 175 -29 107 0
119 2 175 29 77 38 153 114 191 191 27 56 29 68 29 175 0 107 -2 119 -29 175
-38 77 -114 153 -191 190 -52 26 -73 30 -160 33 -79 2 -111 -2 -152 -17z m125
-221 c37 -23 39 -31 14 -53 -16 -14 -22 -15 -60 -2 -81 28 -155 -22 -155 -105
0 -52 28 -91 76 -107 46 -15 99 -1 127 34 33 43 27 53 -35 53 -54 0 -55 0 -55
30 l0 30 90 0 90 0 0 -46 c0 -25 -5 -55 -11 -67 -17 -32 -60 -77 -91 -93 -35
-18 -121 -18 -156 0 -31 16 -74 61 -91 93 -15 30 -14 119 3 151 15 29 59 73
91 90 34 19 126 14 163 -8z"/>
</g>
</svg>
