<?xml version="1.0" encoding="UTF-8" standalone="no"?>
<svg
   xmlns:dc="http://purl.org/dc/elements/1.1/"
   xmlns:cc="http://creativecommons.org/ns#"
   xmlns:rdf="http://www.w3.org/1999/02/22-rdf-syntax-ns#"
   xmlns:svg="http://www.w3.org/2000/svg"
   xmlns="http://www.w3.org/2000/svg"
   viewBox="0 0 682.66669 682.66669"
   height="682.66669"
   width="682.66669"
   xml:space="preserve"
   id="svg2"
   version="1.1"><metadata
     id="metadata8"><rdf:RDF><cc:Work
         rdf:about=""><dc:format>image/svg+xml</dc:format><dc:type
           rdf:resource="http://purl.org/dc/dcmitype/StillImage" /></cc:Work></rdf:RDF></metadata><defs
     id="defs6"><clipPath
       id="clipPath18"
       clipPathUnits="userSpaceOnUse"><path
         id="path16"
         d="M 0,512 H 512 V 0 H 0 Z" /></clipPath><clipPath
       id="clipPath30"
       clipPathUnits="userSpaceOnUse"><path
         id="path28"
         d="M 22.7483,493.268 H 256.073 V 17.5283 H 22.7483 Z" /></clipPath></defs><g
     transform="matrix(1.3333333,0,0,-1.3333333,0,682.66667)"
     id="g10"><g
       id="g12"><g
         clip-path="url(#clipPath18)"
         id="g14"><g
           transform="translate(260.6182,17.5283)"
           id="g20"><path
             id="path22"
             style="fill:#7dc46f;fill-opacity:1;fill-rule:nonzero;stroke:none"
             d="M 0,0 H -0.001 C -131.372,0 -237.87,106.498 -237.87,237.87 v 0 c 0,131.372 106.498,237.869 237.869,237.869 H 0 c 131.371,0 237.869,-106.497 237.869,-237.869 v 0 C 237.869,106.498 131.371,0 0,0" /></g><g
           id="g24"><g
             id="g26" /><g
             id="g38"><g
               style="opacity:0.05000311"
               id="g36"
               clip-path="url(#clipPath30)"><g
                 id="g34"
                 transform="translate(22.7485,255.3984)"><path
                   id="path32"
                   style="fill:#292929;fill-opacity:1;fill-rule:nonzero;stroke:none"
                   d="m 0,0 c 0,65.68 26.121,125.15 68.338,168.2 42.228,43.04 100.562,69.67 164.987,69.67 v -475.74 c -64.425,0 -122.759,26.63 -164.987,69.67 C 26.121,-125.15 0,-65.68 0,0" /></g></g></g></g><g
           transform="translate(147.6787,262.9116)"
           id="g40"><path
             id="path42"
             style="fill:#6e6d6d;fill-opacity:1;fill-rule:nonzero;stroke:none"
             d="m 0,0 v -106.628 h 2.146 c 0.395,-20.734 56.424,-51.951 112.593,-51.951 56.169,0 112.196,31.217 112.591,51.951 h -2.225 V 0 Z" /></g><g
           transform="translate(445.7383,311.3437)"
           id="g44"><path
             id="path46"
             style="fill:#575858;fill-opacity:1;fill-rule:nonzero;stroke:none"
             d="m 0,0 -176.088,92.273 c -6.988,3.795 -11.081,3.795 -18.06,0 L -370.239,0 c -4.625,-4.62 -4.625,-29.154 0,-33.77 l 176.091,-92.277 c 6.57,-3.384 11.891,-3.291 18.06,0 L 0,-33.77 C 4.622,-29.154 4.622,-4.62 0,0" /></g><g
           transform="translate(269.6504,201.0078)"
           id="g48"><path
             id="path50"
             style="fill:#6e6d6d;fill-opacity:1;fill-rule:nonzero;stroke:none"
             d="m 0,0 c -6.169,-3.286 -11.49,-3.383 -18.061,0 l -176.09,92.278 c -4.987,4.985 -4.987,13.073 0,18.058 l 176.09,92.273 c 6.98,3.795 11.073,3.795 18.061,0 l 176.088,-92.273 c 4.984,-4.985 4.984,-13.073 0,-18.058 z" /></g><g
           transform="translate(241.9375,304.9321)"
           id="g52"><path
             id="path54"
             style="fill:#fce772;fill-opacity:1;fill-rule:nonzero;stroke:none"
             d="m 0,0 -76.472,-58.792 0.194,-72.702 12.003,-0.408 0.429,66.465 71.802,56.272 z" /></g><g
           transform="translate(185.502,190.0342)"
           id="g56"><path
             id="path58"
             style="fill:#fce772;fill-opacity:1;fill-rule:nonzero;stroke:none"
             d="m 0,0 c 0,-10.846 -10.813,-39.675 -13.733,-39.675 -2.907,0 -13.791,29.008 -13.791,39.844 0,10.843 6.825,19.387 13.791,19.387 C -6.759,19.556 0,10.835 0,0" /></g><g
           transform="translate(292.1846,302.4839)"
           id="g60"><path
             id="path62"
             style="fill:#575858;fill-opacity:1;fill-rule:nonzero;stroke:none"
             d="m 0,0 c 0,-9.492 -14.128,-17.181 -31.57,-17.181 -17.436,0 -31.57,7.689 -31.57,17.181 0,9.496 14.134,17.187 31.57,17.187 C -14.128,17.187 0,9.496 0,0" /></g><g
           transform="translate(257.2695,182.8594)"
           id="g64"><path
             id="path66"
             style="fill:#575858;fill-opacity:1;fill-rule:nonzero;stroke:none"
             d="m 0,0 v -75.784 c 65.162,0 115.909,33.536 116.303,51.949 l 0.84,81.499 L 10.068,2.438 C 6.64,0.609 2.962,-0.194 0,0" /></g><g
           transform="translate(445.7383,293.2856)"
           id="g68"><path
             id="path70"
             style="fill:#424242;fill-opacity:1;fill-rule:nonzero;stroke:none"
             d="m 0,0 -177.354,-92.278 c -3.423,-1.822 -8.153,-2.626 -11.115,-2.435 v -15.713 c 2.962,-0.195 7.692,0.609 11.115,2.437 l 106.028,55.227 71.007,37.05 C 2.493,-12.899 3.747,-2.716 3.134,5.872 2.591,3.726 1.678,1.681 0,0" /></g><g
           transform="translate(259.3506,319.6709)"
           id="g72"><path
             id="path74"
             style="fill:#575858;fill-opacity:1;fill-rule:nonzero;stroke:none"
             d="m 0,0 c 17.438,0 32.2,-7.691 32.2,-17.187 0,-9.492 -15.078,-17.181 -32.515,-17.181 -0.272,0 -1.766,0.015 -1.766,0.02 v -86.751 c 2.962,-0.19 7.691,0.614 11.114,2.436 l 176.718,92.278 c 1.681,1.68 3.063,3.725 3.609,5.871 1.081,4.226 0.179,8.882 -3.127,12.187 L 8.957,83.946 C 5.118,86.03 0.881,86.927 -2.081,86.723 V -0.024 C -2.081,-0.017 -0.276,0 0,0" /></g><g
           transform="translate(292.1846,302.4839)"
           id="g76"><path
             id="path78"
             style="fill:#424242;fill-opacity:1;fill-rule:nonzero;stroke:none"
             d="m 0,0 c 0,9.496 -15.396,17.187 -32.834,17.187 -0.276,0 -2.081,-0.017 -2.081,-0.024 v -34.324 c 0,-0.005 1.805,-0.02 2.081,-0.02 C -15.396,-17.181 0,-9.492 0,0" /></g></g></g></g></svg>